<?xml version="1.0" standalone="no"?>
<!DOCTYPE svg PUBLIC "-//W3C//DTD SVG 20010904//EN"
 "http://www.w3.org/TR/2001/REC-SVG-20010904/DTD/svg10.dtd">
<svg version="1.0" xmlns="http://www.w3.org/2000/svg"
 width="660.000000pt" height="660.000000pt" viewBox="0 0 660.000000 660.000000"
 preserveAspectRatio="xMidYMid meet">
<metadata>
Created by potrace 1.14, written by Peter Selinger 2001-2017
</metadata>
<g transform="translate(0.000000,660.000000) scale(0.100000,-0.100000)"
fill="#000000" stroke="none">
<path d="M4325 4316 c-313 -61 -540 -314 -632 -705 -37 -157 -43 -410 -15
-576 74 -430 301 -724 629 -817 101 -28 276 -31 373 -5 199 53 347 193 433
409 33 82 64 208 73 299 l7 69 -55 0 -54 0 -16 -104 c-55 -345 -225 -551 -485
-588 -221 -32 -407 60 -497 244 -41 84 -79 212 -96 319 -18 115 -25 586 -10
741 28 305 118 505 259 577 139 71 301 64 429 -18 150 -96 299 -325 374 -573
l23 -78 38 0 37 0 0 401 0 400 -36 -3 c-36 -3 -37 -4 -68 -92 -49 -135 -63
-138 -190 -43 -182 135 -341 178 -521 143z"/>
<path d="M2370 4277 c0 -3 -141 -403 -314 -891 -210 -592 -324 -902 -346 -936
-49 -76 -102 -103 -212 -108 l-89 -4 3 -47 3 -46 393 -3 392 -2 0 50 0 50 -90
0 c-56 0 -104 5 -125 14 -91 38 -97 146 -22 356 l45 125 328 0 329 0 69 -205
c53 -155 68 -212 62 -233 -10 -43 -56 -57 -181 -57 l-106 0 3 -47 3 -48 443
-3 442 -2 0 50 0 50 -92 0 c-109 1 -163 17 -198 59 -17 21 -121 311 -340 953
l-315 923 -42 3 c-24 2 -43 1 -43 -1z m112 -915 c76 -222 138 -405 138 -408 0
-2 -128 -4 -285 -4 -157 0 -285 1 -285 3 0 4 269 810 276 827 6 13 7 13 12 0
3 -8 67 -196 144 -418z"/>
</g>
</svg>
